<svg width="39" height="39" viewBox="0 0 39 39" fill="none" xmlns="http://www.w3.org/2000/svg">
<path d="M5.36085 5.53902L19.4115 0.855469L33.4622 5.53902L19.424 10.2241L5.36085 5.52185V5.53902ZM3.79967 8.66139L1.14565 13.0858C0.104344 14.8218 0.938017 17.0746 2.85827 17.7147L10.7907 20.3594C12.1785 20.8215 13.7023 20.2579 14.4548 19.0042L17.8503 13.3465L3.79967 8.66139ZM20.9727 13.3449L24.3683 19.0027C25.1208 20.2579 26.6445 20.8215 28.0324 20.3578L36.0225 17.6944C37.9131 17.0637 38.7343 14.8452 37.7086 13.1358L35.0234 8.66139L20.9727 13.3449ZM17.1322 20.6107C15.9738 22.5403 13.9411 23.6472 11.8007 23.6472C11.1372 23.6472 10.4644 23.5426 9.80242 23.3209L3.79967 21.321V33.6419L17.8503 38.3255V19.4133L17.1322 20.6091V20.6107ZM29.0206 23.3209C28.3587 23.5426 27.6858 23.6472 27.0223 23.6472C24.8819 23.6472 22.8492 22.5419 21.6908 20.6107L20.9727 19.4148V38.3255L35.0234 33.6419V21.321L29.0206 23.3209Z" fill="white"/>
</svg>
