<svg width="27" height="24" viewBox="0 0 27 24" fill="none" xmlns="http://www.w3.org/2000/svg">
<path d="M14.4477 23.1482L14.4475 23.1484C14.2519 23.2704 14.0415 23.3877 13.8454 23.4733C13.64 23.5629 13.4894 23.6 13.4012 23.6C13.313 23.6 13.1624 23.5629 12.957 23.4733C12.7609 23.3877 12.5505 23.2704 12.3549 23.1484C8.684 20.8579 5.687 18.3817 3.61163 15.8162C1.53622 13.2506 0.4 10.6185 0.4 8.00427C0.4 3.49318 3.60393 0.4 7.72025 0.4C10.1234 0.4 11.9848 1.46675 13.0727 3.03289L13.3988 3.50235L13.7281 3.03518C14.843 1.45383 16.6926 0.4 19.0954 0.4C23.198 0.4 26.4024 3.49272 26.4024 8.00427C26.4024 10.6188 25.2692 13.251 23.1956 15.8163C21.122 18.3817 18.1251 20.8578 14.4477 23.1482ZM14.0488 4.94553L14.0478 4.94684C13.8589 5.19888 13.7363 5.33029 13.6386 5.40169C13.5605 5.45877 13.4981 5.47833 13.4012 5.47833C13.306 5.47833 13.2386 5.4591 13.1581 5.40243C13.0623 5.33492 12.9386 5.20695 12.7628 4.95826C11.8962 3.69505 10.4535 2.17417 7.87916 2.17417C4.69233 2.17417 2.32791 4.55634 2.32791 7.99146C2.32791 10.3833 3.60854 12.8491 5.54426 15.1397C7.48473 17.4359 10.1232 19.6038 12.9374 21.4106C12.989 21.4479 13.0476 21.4887 13.1053 21.5213C13.1538 21.5486 13.2644 21.6081 13.4012 21.6081C13.5369 21.6081 13.6478 21.5489 13.6927 21.5246C13.7478 21.4948 13.8087 21.4555 13.8617 21.4213L13.8688 21.4167C16.6865 19.6086 19.3287 17.4385 21.2714 15.1397C23.2071 12.8491 24.4877 10.3833 24.4877 7.99146C24.4877 6.28504 23.9051 4.82749 22.9053 3.79439C21.905 2.76091 20.508 2.17417 18.9232 2.17417C16.3549 2.17417 14.9664 3.73185 14.0488 4.94553Z" fill="black" stroke="#F4F4F4" stroke-width="0.8"/>
</svg>
