<svg width="28" height="26" viewBox="0 0 28 26" fill="none" xmlns="http://www.w3.org/2000/svg">
<path d="M0.520508 9.00427C0.520508 14.4728 5.27449 19.8773 12.6637 24.4877C13.0742 24.7439 13.5774 25 13.9217 25C14.266 25 14.7692 24.7439 15.1797 24.4877C22.5822 19.8773 27.3229 14.4728 27.3229 9.00427C27.3229 4.27855 23.9461 1 19.6159 1C17.0866 1 15.1135 2.11419 13.9217 3.8047C12.7564 2.127 10.77 1 8.24076 1C3.89729 1 0.520508 4.27855 0.520508 9.00427ZM3.24842 8.99146C3.24842 5.76414 5.44664 3.57417 8.39967 3.57417C10.7833 3.57417 12.1208 4.97012 12.955 6.18677C13.3258 6.71185 13.5774 6.87834 13.9217 6.87834C14.2792 6.87834 14.5044 6.69904 14.8884 6.18677C15.7889 4.99573 17.0734 3.57417 19.4437 3.57417C22.41 3.57417 24.6082 5.76414 24.6082 8.99146C24.6082 13.4995 19.7615 18.4941 14.1733 22.08C14.0541 22.1569 13.9747 22.2081 13.9217 22.2081C13.8687 22.2081 13.7893 22.1569 13.6833 22.08C8.0951 18.4941 3.24842 13.4995 3.24842 8.99146Z" fill="black" stroke="black" stroke-width="0.8"/>
<path d="M13.5 23C13.7955 23 14.2273 22.7866 14.5795 22.5731C20.9318 18.7311 25 14.2273 25 9.67022C25 5.73212 22.1023 3 18.4773 3C16.2159 3 14.5227 4.17396 13.5 5.92423C12.5 4.17396 10.7955 3 8.53409 3C4.89773 3 2 5.73212 2 9.67022C2 14.2273 6.07955 18.7311 12.4205 22.5731C12.7727 22.7866 13.2045 23 13.5 23Z" fill="black"/>
</svg>
